<svg xmlns="http://www.w3.org/2000/svg" xmlns:xlink="http://www.w3.org/1999/xlink" width="1080" zoomAndPan="magnify" viewBox="0 0 810 809.999993" height="1080" preserveAspectRatio="xMidYMid meet" version="1.0"><defs><g/></defs><rect x="-81" width="972" fill="#ffffff" y="-80.999999" height="971.999992" fill-opacity="1"/><rect x="-81" width="972" fill="#000000" y="-80.999999" height="971.999992" fill-opacity="1"/><g fill="#1dc166" fill-opacity="1"><g transform="translate(37.192222, 600.139503)"><g><path d="M 112.75 -292.359375 C 106.925781 -290.609375 102.554688 -287.40625 99.640625 -282.75 C 99.347656 -282.457031 99.054688 -282.019531 98.765625 -281.4375 C 98.472656 -280.851562 98.035156 -280.269531 97.453125 -279.6875 L 153.390625 -279.6875 C 152.222656 -277.644531 151.203125 -275.238281 150.328125 -272.46875 C 149.453125 -269.707031 148.722656 -266.722656 148.140625 -263.515625 C 147.859375 -261.765625 147.570312 -260.015625 147.28125 -258.265625 C 146.988281 -256.523438 146.695312 -254.488281 146.40625 -252.15625 L 95.703125 -252.15625 C 95.410156 -249.238281 95.191406 -246.03125 95.046875 -242.53125 C 94.898438 -239.039062 94.828125 -235.257812 94.828125 -231.1875 L 94.828125 -208.015625 L 211.953125 -208.015625 L 211.953125 -198.84375 L 103.578125 -198.84375 L 103.578125 -129.359375 L 127.171875 -129.359375 C 127.171875 -118.867188 127.609375 -109.691406 128.484375 -101.828125 L 141.15625 -101.828125 C 141.445312 -100.953125 141.59375 -100.078125 141.59375 -99.203125 C 141.59375 -98.328125 141.738281 -97.453125 142.03125 -96.578125 C 143.195312 -88.421875 145.671875 -82.015625 149.453125 -77.359375 C 152.367188 -72.691406 156.738281 -69.484375 162.5625 -67.734375 C 167.8125 -65.691406 175.242188 -64.671875 184.859375 -64.671875 L 341.75 -64.671875 C 343.789062 -64.671875 346.335938 -63.796875 349.390625 -62.046875 C 352.453125 -60.304688 353.984375 -56.082031 353.984375 -49.375 L 353.984375 -43.703125 L 313.34375 -43.703125 L 313.34375 -16.171875 L 349.171875 -16.171875 L 349.171875 -14.859375 C 349.171875 -13.398438 349.023438 -12.015625 348.734375 -10.703125 C 348.441406 -9.390625 348.148438 -8.296875 347.859375 -7.421875 L 304.15625 -7.421875 C 303 -3.929688 301.253906 -1.75 298.921875 -0.875 C 296.585938 0 294.691406 0.4375 293.234375 0.4375 L 134.15625 0.4375 C 114.9375 0.4375 98.625 -2.039062 85.21875 -7 C 84.925781 -7 84.632812 -7.140625 84.34375 -7.421875 L 128.046875 -7.421875 C 124.835938 -8.585938 121.773438 -9.898438 118.859375 -11.359375 C 115.953125 -12.816406 113.1875 -14.421875 110.5625 -16.171875 L 74.734375 -16.171875 C 68.609375 -20.828125 63.363281 -25.78125 59 -31.03125 C 57.832031 -33.070312 56.59375 -35.109375 55.28125 -37.140625 C 53.96875 -39.179688 52.726562 -41.367188 51.5625 -43.703125 L 91.765625 -43.703125 C 87.109375 -51.859375 83.46875 -61.910156 80.84375 -73.859375 C 79.675781 -78.222656 78.800781 -82.734375 78.21875 -87.390625 C 77.644531 -92.054688 77.066406 -96.867188 76.484375 -101.828125 L 63.796875 -101.828125 C 62.929688 -110.566406 62.5 -119.742188 62.5 -129.359375 L 38.890625 -129.359375 C 38.890625 -130.523438 38.890625 -131.757812 38.890625 -133.0625 C 38.890625 -134.375 38.890625 -135.613281 38.890625 -136.78125 L 38.890625 -198.84375 L 71.234375 -198.84375 L 71.234375 -208.015625 L 29.71875 -208.015625 L 29.71875 -223.3125 C 29.71875 -233.507812 30.15625 -243.125 31.03125 -252.15625 L 82.15625 -252.15625 C 82.738281 -257.113281 83.25 -261.921875 83.6875 -266.578125 C 84.125 -271.242188 84.78125 -275.613281 85.65625 -279.6875 L 29.71875 -279.6875 C 30.007812 -280.5625 30.226562 -281.507812 30.375 -282.53125 C 30.519531 -283.550781 30.738281 -284.5 31.03125 -285.375 C 33.9375 -298.769531 38.597656 -310.710938 45.015625 -321.203125 L 120.609375 -321.203125 C 122.066406 -323.828125 123.671875 -326.160156 125.421875 -328.203125 C 126.296875 -329.078125 126.878906 -329.804688 127.171875 -330.390625 L 110.5625 -330.390625 C 114.644531 -335.335938 119.304688 -339.703125 124.546875 -343.484375 C 129.796875 -347.273438 135.625 -350.335938 142.03125 -352.671875 C 145.238281 -353.546875 148.367188 -354.421875 151.421875 -355.296875 C 154.484375 -356.171875 157.765625 -356.898438 161.265625 -357.484375 L 83.90625 -357.484375 C 93.226562 -359.222656 103.28125 -360.09375 114.0625 -360.09375 L 273.140625 -360.09375 C 274.015625 -360.09375 275.175781 -359.945312 276.625 -359.65625 C 278.082031 -359.375 279.394531 -358.648438 280.5625 -357.484375 L 338.25 -357.484375 C 339.707031 -356.316406 340.875 -354.785156 341.75 -352.890625 C 342.625 -350.992188 343.0625 -348.300781 343.0625 -344.8125 L 343.0625 -330.390625 L 359.65625 -330.390625 L 359.65625 -321.203125 L 304.15625 -321.203125 L 304.15625 -311.15625 C 304.15625 -304.164062 302.625 -299.796875 299.5625 -298.046875 C 296.507812 -296.296875 293.960938 -295.421875 291.921875 -295.421875 L 135.03125 -295.421875 C 130.664062 -295.421875 126.585938 -295.203125 122.796875 -294.765625 C 119.015625 -294.328125 115.664062 -293.523438 112.75 -292.359375 Z M 221.5625 -96.578125 L 221.5625 -91.765625 L 316.84375 -91.765625 L 316.84375 -96.578125 Z M 137.21875 -232.921875 L 137.21875 -228.125 L 232.921875 -228.125 L 232.921875 -232.921875 Z M 184.859375 -174.375 L 184.859375 -165.625 L 326.890625 -165.625 L 326.890625 -174.375 Z M 116.6875 -129.359375 L 116.6875 -124.546875 L 169.5625 -124.546875 L 169.5625 -129.359375 Z M 116.6875 -129.359375 "/></g></g></g><g fill="#1dc166" fill-opacity="1"><g transform="translate(408.212041, 600.139503)"><g><path d="M 322.515625 -243.859375 L 348.296875 -243.859375 C 348.003906 -238.316406 347.492188 -232.921875 346.765625 -227.671875 C 346.035156 -222.429688 345.238281 -217.335938 344.375 -212.390625 L 331.6875 -212.390625 C 329.945312 -205.398438 327.835938 -198.914062 325.359375 -192.9375 C 322.878906 -186.96875 320.039062 -181.503906 316.84375 -176.546875 C 314.507812 -173.640625 311.957031 -170.875 309.1875 -168.25 C 306.414062 -165.625 303.429688 -163.148438 300.234375 -160.828125 L 286.25 -160.828125 C 278.382812 -155.867188 269.0625 -152.367188 258.28125 -150.328125 L 289.296875 -150.328125 C 283.179688 -149.453125 276.484375 -149.015625 269.203125 -149.015625 L 119.75 -148.578125 L 119.75 -69.921875 L 139.40625 -69.921875 L 139.40625 -38.453125 L 102.703125 -38.453125 L 102.703125 -16.609375 L 113.1875 -16.609375 L 113.1875 -14.859375 C 113.1875 -8.160156 111.65625 -3.9375 108.59375 -2.1875 C 105.539062 -0.4375 102.992188 0.4375 100.953125 0.4375 L 61.1875 0.4375 C 59.144531 0.4375 56.519531 -0.4375 53.3125 -2.1875 C 50.113281 -3.9375 48.515625 -8.160156 48.515625 -14.859375 L 48.515625 -16.609375 L -6.125 -16.609375 L -6.125 -38.453125 L 43.265625 -38.453125 L 43.265625 -69.921875 L 55.0625 -69.921875 L 55.0625 -150.328125 L 2.1875 -150.328125 L 2.1875 -160.828125 L 38.015625 -160.828125 L 38.015625 -198.40625 C 38.015625 -202.769531 38.816406 -206.046875 40.421875 -208.234375 C 42.023438 -210.421875 43.703125 -211.804688 45.453125 -212.390625 L 73.421875 -212.390625 C 74.296875 -212.972656 75.171875 -213.265625 76.046875 -213.265625 C 76.921875 -213.265625 77.644531 -213.265625 78.21875 -213.265625 L 268.765625 -213.265625 C 279.835938 -213.265625 287.554688 -216.46875 291.921875 -222.875 C 295.421875 -227.832031 297.609375 -234.828125 298.484375 -243.859375 L 257.40625 -243.859375 C 257.695312 -245.609375 257.84375 -247.28125 257.84375 -248.875 C 257.84375 -250.476562 257.84375 -252.300781 257.84375 -254.34375 C 257.84375 -268.90625 255.507812 -279.394531 250.84375 -285.8125 C 249.382812 -288.132812 246.765625 -290.316406 242.984375 -292.359375 L 279.25 -292.359375 C 277.207031 -293.234375 274.945312 -293.960938 272.46875 -294.546875 C 270 -295.128906 267.160156 -295.421875 263.953125 -295.421875 L 73.859375 -295.421875 C 72.398438 -295.421875 70.503906 -295.859375 68.171875 -296.734375 C 65.835938 -297.609375 63.945312 -299.648438 62.5 -302.859375 L 17.484375 -302.859375 C 16.609375 -304.597656 16.171875 -307.070312 16.171875 -310.28125 L 16.171875 -334.3125 L 48.515625 -334.3125 L 48.515625 -344.8125 C 48.515625 -351.800781 50.113281 -356.09375 53.3125 -357.6875 C 56.519531 -359.289062 59.144531 -360.09375 61.1875 -360.09375 L 262.640625 -360.09375 C 290.898438 -360.09375 311.878906 -351.5 325.578125 -334.3125 L 292.796875 -334.3125 C 293.671875 -333.4375 294.253906 -332.707031 294.546875 -332.125 C 297.753906 -328.34375 300.445312 -323.972656 302.625 -319.015625 C 304.8125 -314.066406 306.632812 -308.679688 308.09375 -302.859375 L 336.0625 -302.859375 C 336.644531 -301.109375 337.082031 -299.359375 337.375 -297.609375 C 337.664062 -295.859375 337.957031 -294.109375 338.25 -292.359375 L 319.453125 -292.359375 C 320.617188 -286.828125 321.421875 -280.851562 321.859375 -274.4375 C 322.296875 -268.03125 322.515625 -261.332031 322.515625 -254.34375 C 322.515625 -252.59375 322.515625 -250.84375 322.515625 -249.09375 C 322.515625 -247.351562 322.515625 -245.609375 322.515625 -243.859375 Z M 143.34375 -262.640625 L 143.34375 -274.015625 L 51.125 -274.015625 L 51.125 -262.640625 Z M 225.0625 -235.109375 L 225.0625 -243.859375 L 154.703125 -243.859375 L 154.703125 -235.109375 Z M 262.640625 -92.203125 L 262.640625 -100.953125 L 151.203125 -100.953125 L 151.203125 -92.203125 Z M 200.59375 -124.984375 L 200.59375 -130.671875 L 119.75 -130.671875 L 119.75 -124.984375 Z M 200.59375 -124.984375 "/></g></g></g></svg>